<svg width="369" height="324" viewBox="0 0 369 324" fill="none" xmlns="http://www.w3.org/2000/svg">
<path d="M80.2965 83.879L45.7868 100.753L220.399 201.565L252.786 183.466L80.2965 83.879Z" fill="#00AC3C"/>
<path fill-rule="evenodd" clip-rule="evenodd" d="M80.3205 83.1848L254.027 183.474L220.394 202.269L44.4836 100.707L80.3205 83.1848ZM80.2727 84.5725L47.0904 100.797L220.404 200.86L251.545 183.457L80.2727 84.5725Z" fill="#00AC3C"/>
<path fill-rule="evenodd" clip-rule="evenodd" d="M45.53 99.8965L220.175 200.728L199.032 237.349L26.5733 137.78L45.53 99.8965ZM46.0439 101.608L28.1862 137.295L198.583 235.674L218.501 201.176L46.0439 101.608Z" fill="#00AC3C"/>
<path fill-rule="evenodd" clip-rule="evenodd" d="M254.282 183.326L231.071 223.529L199.026 237.358L219.958 201.103L254.282 183.326ZM220.84 202.027L201.938 234.767L230.212 222.564L251.126 186.341L220.84 202.027Z" fill="#00AC3C"/>
<path fill-rule="evenodd" clip-rule="evenodd" d="M258.284 229.099L225.378 210.101L225.991 209.039L258.897 228.037L258.284 229.099Z" fill="#00AC3C"/>
<path fill-rule="evenodd" clip-rule="evenodd" d="M43.8664 105.305L18.3911 90.5966L19.0039 89.5352L44.4792 104.243L43.8664 105.305Z" fill="#00AC3C"/>
<path d="M153.744 235.393L173.395 252.509L41.2758 287.91L23.2316 270.364L153.744 235.393Z" fill="#EB9081"/>
<path fill-rule="evenodd" clip-rule="evenodd" d="M153.851 234.934L22.4172 270.151L41.1555 288.373L174.257 252.708L153.851 234.934ZM153.638 235.852L172.533 252.309L41.3965 287.447L24.0463 270.576L153.638 235.852Z" fill="#EB9081"/>
<path fill-rule="evenodd" clip-rule="evenodd" d="M173.713 251.993L41.5696 287.401L48.9941 315.11L179.483 280.145L173.713 251.993ZM173.076 253.025L178.512 279.545L49.5821 314.091L42.5879 287.989L173.076 253.025Z" fill="#EB9081"/>
<path fill-rule="evenodd" clip-rule="evenodd" d="M22.2639 270.012L30.4146 300.431L48.9843 315.12L41.6339 287.688L22.2639 270.012ZM40.8937 288.138L47.5315 312.911L31.1465 299.95L23.8025 272.542L40.8937 288.138Z" fill="#EB9081"/>
<path fill-rule="evenodd" clip-rule="evenodd" d="M11.6048 299.303L36.5026 292.632L36.2874 291.829L11.3896 298.5L11.6048 299.303Z" fill="#EB9081"/>
<path fill-rule="evenodd" clip-rule="evenodd" d="M173.854 255.829L193.13 250.664L192.914 249.861L173.639 255.026L173.854 255.829Z" fill="#EB9081"/>
<path d="M322.748 88.0132L342.399 70.8973L210.28 35.4961L192.236 53.0425L322.748 88.0132Z" fill="#EB9081"/>
<path fill-rule="evenodd" clip-rule="evenodd" d="M322.855 88.4721L191.421 53.2547L210.16 35.0335L343.261 70.6979L322.855 88.4721ZM322.642 87.5544L341.537 71.0968L210.401 35.9589L193.05 52.8304L322.642 87.5544Z" fill="#EB9081"/>
<path fill-rule="evenodd" clip-rule="evenodd" d="M342.717 71.4131L210.574 36.0053L217.998 8.2965L348.488 43.261L342.717 71.4131ZM342.08 70.3815L347.516 43.8614L218.586 9.31486L211.592 35.4174L342.08 70.3815Z" fill="#EB9081"/>
<path fill-rule="evenodd" clip-rule="evenodd" d="M191.266 53.393L199.416 22.974L217.986 8.28545L210.636 35.7177L191.266 53.393ZM209.895 35.2675L216.533 10.4948L200.148 23.4553L192.804 50.8634L209.895 35.2675Z" fill="#EB9081"/>
<path fill-rule="evenodd" clip-rule="evenodd" d="M180.606 24.1022L205.504 30.7735L205.289 31.5767L180.391 24.9053L180.606 24.1022Z" fill="#EB9081"/>
<path fill-rule="evenodd" clip-rule="evenodd" d="M342.858 67.5773L362.134 72.7423L361.918 73.5454L342.643 68.3805L342.858 67.5773Z" fill="#EB9081"/>
</svg>
