<svg width="513" height="277" viewBox="0 0 513 277" fill="none" xmlns="http://www.w3.org/2000/svg">
<path d="M146.444 102.961L123.821 125.565H55.9536L78.5762 102.961M146.444 102.961H78.5762M146.444 102.961L123.821 80.3574M78.5762 102.961L55.9536 80.3574M55.9536 80.3574H123.821M55.9536 80.3574L78.5762 57.7537H146.444L123.821 80.3574" stroke="#9747FF" stroke-width="3.31797" stroke-linecap="round" stroke-linejoin="round"/>
<path fill-rule="evenodd" clip-rule="evenodd" d="M91.659 0C91.7973 0 91.9356 0.000306383 92.0737 0.000918506V0.408451C94.9406 0.13822 97.8459 3.1502e-05 100.783 3.1502e-05C151.405 3.1502e-05 192.442 41.0372 192.442 91.659C192.442 142.281 151.405 183.318 100.783 183.318C97.8459 183.318 94.9406 183.18 92.0737 182.91V183.317C91.9356 183.318 91.7973 183.318 91.659 183.318C41.0371 183.318 0 142.281 0 91.659C0 41.0371 41.0371 0 91.659 0ZM87.8244 182.409C43.3393 176.114 9.12442 137.882 9.12442 91.659C9.12442 45.4359 43.3397 7.20413 87.825 0.908946C39.4395 2.91812 0.829493 42.7796 0.829493 91.659C0.829493 140.538 39.4391 180.399 87.8244 182.409ZM191.613 91.659C191.613 141.823 150.947 182.489 100.783 182.489C50.6197 182.489 9.95392 141.823 9.95392 91.659C9.95392 41.4953 50.6197 0.829525 100.783 0.829525C150.947 0.829525 191.613 41.4953 191.613 91.659Z" fill="#9747FF"/>
<path d="M422.71 35.125L464.819 92.2889L422.719 149.453L380.61 92.2889L422.71 35.125Z" stroke="#00AC3C" stroke-width="3.31797" stroke-linecap="round" stroke-linejoin="round"/>
<path d="M464.819 92.2887L422.711 106.269L380.611 92.2887" stroke="#00AC3C" stroke-width="3.31797" stroke-linecap="round" stroke-linejoin="round"/>
<path fill-rule="evenodd" clip-rule="evenodd" d="M411.659 1C411.797 1 411.936 1.00031 412.074 1.00092V1.40842C414.941 1.13819 417.846 1 420.783 1C471.405 1 512.442 42.0371 512.442 92.659C512.442 143.281 471.405 184.318 420.783 184.318C417.846 184.318 414.941 184.18 412.074 183.91V184.317C411.936 184.318 411.797 184.318 411.659 184.318C361.037 184.318 320 143.281 320 92.659C320 42.0371 361.037 1 411.659 1ZM407.825 183.409C363.34 177.114 329.124 138.882 329.124 92.659C329.124 46.436 363.34 8.20427 407.825 1.90896C359.439 3.91829 320.829 43.7797 320.829 92.659C320.829 141.538 359.439 181.4 407.825 183.409ZM511.613 92.659C511.613 142.823 470.947 183.488 420.783 183.488C370.62 183.488 329.954 142.823 329.954 92.659C329.954 42.4952 370.62 1.82949 420.783 1.82949C470.947 1.82949 511.613 42.4952 511.613 92.659Z" fill="#00AC3C"/>
<path fill-rule="evenodd" clip-rule="evenodd" d="M258.659 93C258.797 93 258.936 93.0003 259.074 93.0009V93.4084C261.941 93.1382 264.846 93 267.783 93C318.405 93 359.442 134.037 359.442 184.659C359.442 235.281 318.405 276.318 267.783 276.318C264.846 276.318 261.941 276.18 259.074 275.91V276.317C258.936 276.318 258.797 276.318 258.659 276.318C208.037 276.318 167 235.281 167 184.659C167 134.037 208.037 93 258.659 93ZM254.825 275.409C210.34 269.114 176.124 230.882 176.124 184.659C176.124 138.436 210.34 100.204 254.825 93.909C206.439 95.9183 167.829 135.78 167.829 184.659C167.829 233.538 206.439 273.4 254.825 275.409ZM358.613 184.659C358.613 234.823 317.947 275.488 267.783 275.488C217.62 275.488 176.954 234.823 176.954 184.659C176.954 134.495 217.62 93.8295 267.783 93.8295C317.947 93.8295 358.613 134.495 358.613 184.659Z" fill="#EB9081"/>
<path d="M247.902 202.763L266.171 221.027C266.655 221.511 267.312 221.783 267.997 221.783C268.682 221.783 269.339 221.511 269.824 221.027L288.093 202.763C288.578 202.278 289.235 202.006 289.92 202.006C290.605 202.006 291.262 202.278 291.746 202.763L299.785 210.797C300.27 211.281 300.542 211.938 300.542 212.623C300.542 213.308 300.27 213.965 299.785 214.45L269.824 244.411C269.339 244.896 268.682 245.168 267.997 245.168C267.312 245.168 266.655 244.896 266.171 244.411L236.215 214.45C235.73 213.965 235.458 213.308 235.458 212.623C235.458 211.938 235.73 211.281 236.215 210.797L244.254 202.763C244.738 202.278 245.395 202.006 246.08 202.006C246.765 202.006 247.422 202.278 247.907 202.763H247.902ZM310.387 183.465L310.744 183.765L318.783 191.799C319.211 192.226 319.476 192.791 319.53 193.393C319.585 193.995 319.427 194.598 319.083 195.095L318.783 195.457L310.744 203.491C310.316 203.919 309.752 204.184 309.15 204.238C308.548 204.293 307.945 204.135 307.448 203.791L307.091 203.491L299.052 195.452C298.626 195.024 298.363 194.461 298.309 193.86C298.256 193.258 298.414 192.657 298.757 192.161L299.052 191.799L307.091 183.765C307.464 183.392 307.942 183.142 308.461 183.049C308.98 182.955 309.515 183.023 309.995 183.243L310.387 183.465ZM228.909 183.765L236.948 191.799C237.433 192.283 237.705 192.94 237.705 193.625C237.705 194.31 237.433 194.967 236.948 195.452L228.909 203.496C228.425 203.981 227.768 204.253 227.083 204.253C226.398 204.253 225.741 203.981 225.256 203.496L217.212 195.452C216.727 194.967 216.455 194.31 216.455 193.625C216.455 192.94 216.727 192.283 217.212 191.799L225.251 183.765C225.735 183.281 226.392 183.008 227.077 183.008C227.762 183.008 228.425 183.281 228.909 183.765ZM269.467 183.465L269.829 183.765L277.863 191.799C278.291 192.226 278.556 192.791 278.61 193.393C278.665 193.995 278.507 194.598 278.163 195.095L277.863 195.457L269.829 203.491C269.402 203.919 268.838 204.184 268.235 204.238C267.633 204.293 267.03 204.135 266.533 203.791L266.171 203.491L258.137 195.452C257.71 195.025 257.447 194.462 257.392 193.86C257.337 193.259 257.495 192.658 257.837 192.161L258.137 191.799L266.171 183.765C266.544 183.392 267.022 183.142 267.541 183.049C268.06 182.955 268.595 183.023 269.075 183.243L269.467 183.465ZM269.829 142.845L299.785 172.801C300.27 173.286 300.542 173.943 300.542 174.628C300.542 175.313 300.27 175.97 299.785 176.454L291.746 184.493C291.262 184.978 290.605 185.25 289.92 185.25C289.235 185.25 288.578 184.978 288.093 184.493L269.829 166.229C269.589 165.989 269.304 165.798 268.99 165.668C268.676 165.537 268.34 165.47 268 165.47C267.66 165.47 267.324 165.537 267.01 165.668C266.696 165.798 266.411 165.989 266.171 166.229L247.907 184.493C247.422 184.978 246.765 185.25 246.08 185.25C245.395 185.25 244.738 184.978 244.254 184.493L236.215 176.454C235.73 175.97 235.458 175.313 235.458 174.628C235.458 173.943 235.73 173.286 236.215 172.801L266.171 142.845C266.655 142.361 267.312 142.089 267.997 142.089C268.682 142.089 269.345 142.361 269.829 142.845Z" fill="#EB9081"/>
</svg>
