<svg width="193" height="184" viewBox="0 0 193 184" fill="none" xmlns="http://www.w3.org/2000/svg">
<path d="M102.71 34.125L144.819 91.2889L102.719 148.453L60.6104 91.2889L102.71 34.125Z" stroke="#00AC3C" stroke-width="3.31797" stroke-linecap="round" stroke-linejoin="round"/>
<path d="M144.819 91.2887L102.711 105.269L60.6108 91.2887" stroke="#00AC3C" stroke-width="3.31797" stroke-linecap="round" stroke-linejoin="round"/>
<path fill-rule="evenodd" clip-rule="evenodd" d="M91.659 0C91.7973 0 91.9356 0.000306405 92.0737 0.000918574V0.408419C94.9406 0.138188 97.8459 0 100.783 0C151.405 0 192.442 41.0371 192.442 91.659C192.442 142.281 151.405 183.318 100.783 183.318C97.8459 183.318 94.9406 183.18 92.0737 182.91V183.317C91.9356 183.318 91.7973 183.318 91.659 183.318C41.0371 183.318 0 142.281 0 91.659C0 41.0371 41.0371 0 91.659 0ZM87.8247 182.409C43.3395 176.114 9.12444 137.882 9.12444 91.659C9.12444 45.436 43.3396 7.20427 87.8247 0.908959C39.4393 2.91829 0.829493 42.7797 0.829493 91.659C0.829493 140.538 39.4393 180.4 87.8247 182.409ZM191.613 91.659C191.613 141.823 150.947 182.488 100.783 182.488C50.6197 182.488 9.95393 141.823 9.95393 91.659C9.95393 41.4952 50.6197 0.829493 100.783 0.829493C150.947 0.829493 191.613 41.4952 191.613 91.659Z" fill="#00AC3C"/>
</svg>
