<svg width="292" height="205" viewBox="0 0 292 205" fill="none" xmlns="http://www.w3.org/2000/svg">
<path d="M44.9704 98.7848L4.92822 108.025L146 204.743L187.89 184.413L44.9704 98.7848Z" fill="#EB9081"/>
<path d="M105.342 51.3502L55.443 58.1265L201.443 135.131L237.789 116.65L105.342 51.3502Z" fill="#EB9081"/>
<path d="M158.321 0.835449L115.198 8.22785L250.726 78.4557L292 64.2869L158.321 0.835449Z" fill="#EB9081"/>
<path d="M0 148.067L4.31224 109.257L144.768 205.359L131.831 244.785L0 148.067Z" stroke="#EB9081" stroke-width="1.23207" stroke-linejoin="round"/>
<path d="M44.9705 99.4008L54.827 58.1265L200.211 135.747L189.738 185.029L44.9705 99.4008Z" stroke="#EB9081" stroke-width="1.23207" stroke-linejoin="round"/>
<path d="M105.958 51.3501L114.582 8.22778L250.11 77.8396L237.173 117.882L105.958 51.3501Z" stroke="#EB9081" stroke-width="1.23207" stroke-linejoin="round"/>
<path d="M256.27 217.679L292 64.2869L250.11 79.6878L238.405 117.882L199.595 135.747L189.122 185.646L146 204.127L132.447 244.785L256.27 217.679Z" stroke="#EB9081" stroke-width="1.23207" stroke-linejoin="round"/>
</svg>
