<svg width="294" height="245" viewBox="0 0 294 245" fill="none" xmlns="http://www.w3.org/2000/svg">
<path d="M45.9704 97.9493L5.92822 107.19L147 203.907L188.89 183.578L45.9704 97.9493Z" fill="#EB9081"/>
<path d="M106.342 50.5147L56.4431 57.2911L202.443 134.295L238.789 115.814L106.342 50.5147Z" fill="#EB9081"/>
<path d="M159.321 0L116.198 7.39241L251.726 77.6203L293 63.4515L159.321 0Z" fill="#EB9081"/>
<path d="M1 147.232L5.31224 108.422L145.768 204.523L132.831 243.949L1 147.232Z" stroke="#EB9081" stroke-width="1.23207" stroke-linejoin="round"/>
<path d="M45.9705 98.5653L55.827 57.2911L201.211 134.911L190.738 184.194L45.9705 98.5653Z" stroke="#EB9081" stroke-width="1.23207" stroke-linejoin="round"/>
<path d="M106.958 50.5147L115.582 7.39233L251.11 77.0041L238.173 117.046L106.958 50.5147Z" stroke="#EB9081" stroke-width="1.23207" stroke-linejoin="round"/>
<path d="M257.27 216.844L293 63.4515L251.11 78.8523L239.405 117.046L200.595 134.911L190.122 184.81L147 203.291L133.447 243.949L257.27 216.844Z" stroke="#EB9081" stroke-width="1.23207" stroke-linejoin="round"/>
</svg>
