<svg width="348" height="249" viewBox="0 0 348 249" fill="none" xmlns="http://www.w3.org/2000/svg">
<path fill-rule="evenodd" clip-rule="evenodd" d="M106.711 90.6441C106.717 90.5776 106.72 90.5111 106.72 90.4444C106.72 84.3779 82.8299 79.46 53.36 79.46C23.8901 79.46 0 84.3779 0 90.4444C0 90.5111 0.00288761 90.5776 0.00863849 90.6441H0V91.2241V248.24V248.82H0.58H106.14H106.72V248.24V91.2241V90.6441H106.711ZM0.58 92.0696C4.39535 97.3655 26.5725 101.429 53.36 101.429C80.1475 101.429 102.325 97.3655 106.14 92.0696V248.24H0.58V92.0696Z" fill="#9747FF"/>
<path fill-rule="evenodd" clip-rule="evenodd" d="M227.351 47.8499C227.357 47.7655 227.36 47.6809 227.36 47.5961C227.36 39.8883 203.47 33.6399 174 33.6399C144.53 33.6399 120.64 39.8883 120.64 47.5961C120.64 47.6809 120.643 47.7655 120.649 47.8499H120.64V48.4299V248.24V248.82H121.22H226.78H227.36V248.24V48.4299V47.8499H227.351ZM121.22 49.661C125.035 56.3897 147.212 61.5524 174 61.5524C200.787 61.5524 222.964 56.3897 226.78 49.6611V248.24H121.22V49.661Z" fill="#9747FF"/>
<path fill-rule="evenodd" clip-rule="evenodd" d="M347.991 16.4315C347.997 16.3339 348 16.2361 348 16.1381C348 7.22527 324.11 0 294.64 0C265.17 0 241.28 7.22527 241.28 16.1381C241.28 16.2361 241.283 16.3339 241.289 16.4315H241.28V17.0115V248.24V248.82H241.86H347.42H348V248.24V17.0115V16.4315H347.991ZM241.86 18.5257C245.675 26.3064 267.853 32.2762 294.64 32.2762C321.427 32.2762 343.605 26.3064 347.42 18.5259V248.24H241.86V18.5257Z" fill="#9747FF"/>
</svg>
