<svg width="563" height="621" viewBox="0 0 563 621" fill="none" xmlns="http://www.w3.org/2000/svg">
<path d="M146.444 285.961L123.821 308.565H55.9536L78.5762 285.961M146.444 285.961H78.5762M146.444 285.961L123.821 263.358M78.5762 285.961L55.9536 263.358M55.9536 263.358H123.821M55.9536 263.358L78.5762 240.754H146.444L123.821 263.358" stroke="#9747FF" stroke-width="3.31797" stroke-linecap="round" stroke-linejoin="round"/>
<path fill-rule="evenodd" clip-rule="evenodd" d="M91.659 183C91.7973 183 91.9356 183 92.0737 183.001V183.408C94.9406 183.138 97.8459 183 100.783 183C151.405 183 192.442 224.037 192.442 274.659C192.442 325.281 151.405 366.318 100.783 366.318C97.8459 366.318 94.9406 366.18 92.0737 365.91V366.317C91.9356 366.318 91.7973 366.318 91.659 366.318C41.0371 366.318 0 325.281 0 274.659C0 224.037 41.0371 183 91.659 183ZM87.8244 365.409C43.3393 359.114 9.12442 320.882 9.12442 274.659C9.12442 228.436 43.3397 190.204 87.825 183.909C39.4395 185.918 0.829493 225.78 0.829493 274.659C0.829493 323.538 39.4391 363.399 87.8244 365.409ZM191.613 274.659C191.613 324.823 150.947 365.489 100.783 365.489C50.6197 365.489 9.95392 324.823 9.95392 274.659C9.95392 224.495 50.6197 183.83 100.783 183.83C150.947 183.83 191.613 224.495 191.613 274.659Z" fill="#9747FF"/>
<path d="M472.71 34.125L514.819 91.2889L472.719 148.453L430.61 91.2889L472.71 34.125Z" stroke="#00AC3C" stroke-width="3.31797" stroke-linecap="round" stroke-linejoin="round"/>
<path d="M514.819 91.2886L472.711 105.268L430.611 91.2886" stroke="#00AC3C" stroke-width="3.31797" stroke-linecap="round" stroke-linejoin="round"/>
<path fill-rule="evenodd" clip-rule="evenodd" d="M461.659 0C461.797 0 461.936 0.000306405 462.074 0.000918574V0.408419C464.941 0.138188 467.846 0 470.783 0C521.405 0 562.442 41.0371 562.442 91.659C562.442 142.281 521.405 183.318 470.783 183.318C467.846 183.318 464.941 183.18 462.074 182.91V183.317C461.936 183.318 461.797 183.318 461.659 183.318C411.037 183.318 370 142.281 370 91.659C370 41.0371 411.037 0 461.659 0ZM457.825 182.409C413.34 176.114 379.124 137.882 379.124 91.659C379.124 45.436 413.34 7.20427 457.825 0.908959C409.439 2.91829 370.829 42.7797 370.829 91.659C370.829 140.538 409.439 180.4 457.825 182.409ZM561.613 91.659C561.613 141.823 520.947 182.488 470.783 182.488C420.62 182.488 379.954 141.823 379.954 91.659C379.954 41.4952 420.62 0.829493 470.783 0.829493C520.947 0.829493 561.613 41.4952 561.613 91.659Z" fill="#00AC3C"/>
<rect x="13.6617" y="414.871" width="145.872" height="203.425" stroke="#9747FF" stroke-width="1.32346"/>
<path d="M36.7707 395.292L14.3713 413.839H160.196L177.109 395.292H36.7707Z" fill="#00AC3C"/>
<path d="M177.109 395.292H36.7707L14.3713 413.839H160.196M177.109 395.292L160.196 413.839M177.109 395.292V608.201L160.196 618.587V413.839" stroke="#9747FF" stroke-width="1.32346"/>
<rect x="198.946" y="338.546" width="145.872" height="279.751" stroke="#9747FF" stroke-width="1.32346"/>
<path d="M222.055 311.915L199.656 337.374H345.48L362.394 311.915H222.055Z" fill="#00AC3C"/>
<path d="M362.394 311.915H222.055L199.656 337.374H345.48M362.394 311.915L345.48 337.374M362.394 311.915V604.191L345.48 618.449V337.374" stroke="#9747FF" stroke-width="1.32346"/>
<rect x="384.231" y="248.892" width="145.872" height="369.404" stroke="#9747FF" stroke-width="1.32346"/>
<path d="M407.34 213.979L384.941 247.559H530.765L547.679 213.979H407.34Z" fill="#00AC3C"/>
<path d="M547.679 213.979H407.34L384.941 247.559H530.765M547.679 213.979L530.765 247.559M547.679 213.979V599.481L530.765 618.286V247.559" stroke="#9747FF" stroke-width="1.32346"/>
<path fill-rule="evenodd" clip-rule="evenodd" d="M276.659 91C276.797 91 276.936 91.0003 277.074 91.0009V91.4084C279.941 91.1382 282.846 91 285.783 91C336.405 91 377.442 132.037 377.442 182.659C377.442 233.281 336.405 274.318 285.783 274.318C282.846 274.318 279.941 274.18 277.074 273.91V274.317C276.936 274.318 276.797 274.318 276.659 274.318C226.037 274.318 185 233.281 185 182.659C185 132.037 226.037 91 276.659 91ZM272.825 273.409C228.34 267.114 194.124 228.882 194.124 182.659C194.124 136.436 228.34 98.2043 272.825 91.909C224.439 93.9183 185.829 133.78 185.829 182.659C185.829 231.538 224.439 271.4 272.825 273.409ZM376.613 182.659C376.613 232.823 335.947 273.488 285.783 273.488C235.62 273.488 194.954 232.823 194.954 182.659C194.954 132.495 235.62 91.8295 285.783 91.8295C335.947 91.8295 376.613 132.495 376.613 182.659Z" fill="#EB9081"/>
<path d="M265.902 200.763L284.171 219.027C284.655 219.511 285.312 219.783 285.997 219.783C286.682 219.783 287.339 219.511 287.824 219.027L306.093 200.763C306.578 200.278 307.235 200.006 307.92 200.006C308.605 200.006 309.262 200.278 309.746 200.763L317.785 208.797C318.27 209.281 318.542 209.938 318.542 210.623C318.542 211.308 318.27 211.965 317.785 212.45L287.824 242.411C287.339 242.895 286.682 243.167 285.997 243.167C285.312 243.167 284.655 242.895 284.171 242.411L254.215 212.45C253.73 211.965 253.458 211.308 253.458 210.623C253.458 209.938 253.73 209.281 254.215 208.797L262.254 200.763C262.738 200.278 263.395 200.006 264.08 200.006C264.765 200.006 265.422 200.278 265.907 200.763H265.902ZM328.387 181.465L328.744 181.765L336.783 189.799C337.211 190.226 337.476 190.79 337.53 191.393C337.585 191.995 337.427 192.598 337.083 193.095L336.783 193.457L328.744 201.491C328.316 201.919 327.752 202.183 327.15 202.238C326.548 202.293 325.945 202.135 325.448 201.791L325.091 201.491L317.052 193.452C316.626 193.024 316.363 192.461 316.309 191.859C316.256 191.258 316.414 190.657 316.757 190.161L317.052 189.799L325.091 181.765C325.464 181.392 325.942 181.142 326.461 181.049C326.98 180.955 327.515 181.023 327.995 181.243L328.387 181.465ZM246.909 181.765L254.948 189.799C255.433 190.283 255.705 190.94 255.705 191.625C255.705 192.31 255.433 192.967 254.948 193.452L246.909 201.496C246.425 201.981 245.768 202.253 245.083 202.253C244.398 202.253 243.741 201.981 243.256 201.496L235.212 193.452C234.727 192.967 234.455 192.31 234.455 191.625C234.455 190.94 234.727 190.283 235.212 189.799L243.251 181.765C243.735 181.28 244.392 181.008 245.077 181.008C245.762 181.008 246.425 181.28 246.909 181.765ZM287.467 181.465L287.829 181.765L295.863 189.799C296.291 190.226 296.556 190.79 296.61 191.393C296.665 191.995 296.507 192.598 296.163 193.095L295.863 193.457L287.829 201.491C287.402 201.919 286.838 202.183 286.235 202.238C285.633 202.293 285.03 202.135 284.533 201.791L284.171 201.491L276.137 193.452C275.71 193.025 275.447 192.462 275.392 191.86C275.337 191.259 275.495 190.658 275.837 190.161L276.137 189.799L284.171 181.765C284.544 181.392 285.022 181.142 285.541 181.049C286.06 180.955 286.595 181.023 287.075 181.243L287.467 181.465ZM287.829 140.845L317.785 170.801C318.27 171.286 318.542 171.942 318.542 172.627C318.542 173.313 318.27 173.969 317.785 174.454L309.746 182.493C309.262 182.978 308.605 183.25 307.92 183.25C307.235 183.25 306.578 182.978 306.093 182.493L287.829 164.229C287.589 163.988 287.304 163.798 286.99 163.667C286.676 163.537 286.34 163.47 286 163.47C285.66 163.47 285.324 163.537 285.01 163.667C284.696 163.798 284.411 163.988 284.171 164.229L265.907 182.493C265.422 182.978 264.765 183.25 264.08 183.25C263.395 183.25 262.738 182.978 262.254 182.493L254.215 174.454C253.73 173.969 253.458 173.313 253.458 172.627C253.458 171.942 253.73 171.286 254.215 170.801L284.171 140.845C284.655 140.36 285.312 140.088 285.997 140.088C286.682 140.088 287.345 140.36 287.829 140.845Z" fill="#EB9081"/>
</svg>
