<svg width="563" height="621" viewBox="0 0 563 621" fill="none" xmlns="http://www.w3.org/2000/svg">
<path d="M146.444 285.961L123.821 308.565H55.9537L78.5763 285.961M146.444 285.961H78.5763M146.444 285.961L123.821 263.358M78.5763 285.961L55.9537 263.358M55.9537 263.358H123.821M55.9537 263.358L78.5763 240.754H146.444L123.821 263.358" stroke="#9747FF" stroke-width="3.31797" stroke-linecap="round" stroke-linejoin="round"/>
<path fill-rule="evenodd" clip-rule="evenodd" d="M91.659 183C91.7973 183 91.9356 183 92.0737 183.001V183.408C94.9406 183.138 97.8459 183 100.783 183C151.405 183 192.442 224.037 192.442 274.659C192.442 325.281 151.405 366.318 100.783 366.318C97.8459 366.318 94.9406 366.18 92.0737 365.91V366.317C91.9356 366.318 91.7973 366.318 91.659 366.318C41.0371 366.318 0 325.281 0 274.659C0 224.037 41.0371 183 91.659 183ZM87.8244 365.409C43.3393 359.114 9.12442 320.882 9.12442 274.659C9.12442 228.436 43.3397 190.204 87.825 183.909C39.4395 185.918 0.829493 225.78 0.829493 274.659C0.829493 323.538 39.4391 363.399 87.8244 365.409ZM191.613 274.659C191.613 324.823 150.947 365.489 100.783 365.489C50.6197 365.489 9.95392 324.823 9.95392 274.659C9.95392 224.495 50.6197 183.83 100.783 183.83C150.947 183.83 191.613 224.495 191.613 274.659Z" fill="#9747FF"/>
<path d="M472.71 34.125L514.819 91.2889L472.719 148.453L430.61 91.2889L472.71 34.125Z" stroke="#00AC3C" stroke-width="3.31797" stroke-linecap="round" stroke-linejoin="round"/>
<path d="M514.819 91.2886L472.711 105.268L430.611 91.2886" stroke="#00AC3C" stroke-width="3.31797" stroke-linecap="round" stroke-linejoin="round"/>
<path fill-rule="evenodd" clip-rule="evenodd" d="M461.659 0C461.797 0 461.936 0.000306405 462.074 0.000918574V0.408419C464.941 0.138188 467.846 0 470.783 0C521.405 0 562.442 41.0371 562.442 91.659C562.442 142.281 521.405 183.318 470.783 183.318C467.846 183.318 464.941 183.18 462.074 182.91V183.317C461.936 183.318 461.797 183.318 461.659 183.318C411.037 183.318 370 142.281 370 91.659C370 41.0371 411.037 0 461.659 0ZM457.825 182.409C413.34 176.114 379.124 137.882 379.124 91.659C379.124 45.436 413.34 7.20427 457.825 0.908959C409.439 2.91829 370.829 42.7797 370.829 91.659C370.829 140.538 409.439 180.4 457.825 182.409ZM561.613 91.659C561.613 141.823 520.947 182.488 470.783 182.488C420.62 182.488 379.954 141.823 379.954 91.659C379.954 41.4952 420.62 0.829493 470.783 0.829493C520.947 0.829493 561.613 41.4952 561.613 91.659Z" fill="#00AC3C"/>
<path fill-rule="evenodd" clip-rule="evenodd" d="M276.659 92C276.797 92 276.936 92.0003 277.074 92.0009V92.4084C279.941 92.1382 282.846 92 285.783 92C336.405 92 377.442 133.037 377.442 183.659C377.442 234.281 336.405 275.318 285.783 275.318C282.846 275.318 279.941 275.18 277.074 274.91V275.317C276.936 275.318 276.797 275.318 276.659 275.318C226.037 275.318 185 234.281 185 183.659C185 133.037 226.037 92 276.659 92ZM272.825 274.409C228.34 268.114 194.124 229.882 194.124 183.659C194.124 137.436 228.34 99.2043 272.825 92.909C224.439 94.9183 185.829 134.78 185.829 183.659C185.829 232.538 224.439 272.4 272.825 274.409ZM376.613 183.659C376.613 233.823 335.947 274.488 285.783 274.488C235.62 274.488 194.954 233.823 194.954 183.659C194.954 133.495 235.62 92.8295 285.783 92.8295C335.947 92.8295 376.613 133.495 376.613 183.659Z" fill="#EB9081"/>
<path d="M310.813 174.648C315.116 180.175 317.444 186.982 317.429 193.986C317.429 201.394 314.868 208.191 310.627 213.562L310.264 214.018L310.171 213.407C310.081 212.906 309.979 212.409 309.865 211.913C307.729 202.369 300.844 194.167 289.438 187.521C281.75 183.063 277.328 177.702 276.166 171.605C275.53 167.805 275.846 163.906 277.084 160.257C277.955 157.405 279.303 154.725 281.076 152.33L285.535 146.783C285.714 146.56 285.942 146.38 286.2 146.256C286.459 146.133 286.741 146.069 287.028 146.069C287.314 146.069 287.597 146.133 287.855 146.256C288.114 146.38 288.341 146.56 288.521 146.783L310.813 174.648ZM317.823 169.101L288.122 131.93C287.99 131.764 287.824 131.631 287.634 131.539C287.444 131.448 287.236 131.4 287.025 131.4C286.814 131.4 286.606 131.448 286.416 131.539C286.226 131.631 286.06 131.764 285.929 131.93L256.233 169.132L256.145 169.22C250.453 176.451 247.37 185.391 247.393 194.593C247.388 216.942 265.134 235.087 287.028 235.087C308.921 235.087 326.667 216.942 326.667 194.593C326.691 185.391 323.607 176.451 317.916 169.22L317.823 169.101ZM263.335 174.529L265.984 171.206L266.078 171.813L266.29 173.28C268.027 182.518 274.16 190.201 284.435 196.148C293.368 201.363 298.552 207.341 300.046 213.894C300.623 216.444 300.777 219.071 300.502 221.67V221.826L300.383 221.883C296.235 223.957 291.662 225.03 287.028 225.025C270.256 225.025 256.627 211.12 256.627 193.981C256.627 186.635 259.126 179.864 263.335 174.529Z" fill="#EB9081" stroke="#161415" stroke-width="4"/>
<rect x="13.6617" y="414.871" width="145.872" height="203.425" stroke="#9747FF" stroke-width="1.32346"/>
<path d="M36.7708 395.292L14.3715 413.839H160.196L177.109 395.292H36.7708Z" fill="#00AC3C"/>
<path d="M177.109 395.292H36.7708L14.3715 413.839H160.196M177.109 395.292L160.196 413.839M177.109 395.292V608.201L160.196 618.587V413.839" stroke="#9747FF" stroke-width="1.32346"/>
<rect x="198.946" y="338.546" width="145.872" height="279.751" stroke="#9747FF" stroke-width="1.32346"/>
<path d="M222.055 311.915L199.656 337.374H345.48L362.394 311.915H222.055Z" fill="#00AC3C"/>
<path d="M362.394 311.915H222.055L199.656 337.374H345.48M362.394 311.915L345.48 337.374M362.394 311.915V604.191L345.48 618.449V337.374" stroke="#9747FF" stroke-width="1.32346"/>
<rect x="384.231" y="248.892" width="145.872" height="369.404" stroke="#9747FF" stroke-width="1.32346"/>
<path d="M407.34 213.979L384.941 247.559H530.765L547.679 213.979H407.34Z" fill="#00AC3C"/>
<path d="M547.679 213.979H407.34L384.941 247.559H530.765M547.679 213.979L530.765 247.559M547.679 213.979V599.481L530.765 618.286V247.559" stroke="#9747FF" stroke-width="1.32346"/>
</svg>
