<svg width="193" height="184" viewBox="0 0 193 184" fill="none" xmlns="http://www.w3.org/2000/svg">
<path d="M146.444 102.961L123.821 125.565H55.9536L78.5762 102.961M146.444 102.961H78.5762M146.444 102.961L123.821 80.3574M78.5762 102.961L55.9536 80.3574M55.9536 80.3574H123.821M55.9536 80.3574L78.5762 57.7537H146.444L123.821 80.3574" stroke="#9747FF" stroke-width="3.31797" stroke-linecap="round" stroke-linejoin="round"/>
<path fill-rule="evenodd" clip-rule="evenodd" d="M91.659 0C91.7973 0 91.9356 0.000306383 92.0737 0.000918506V0.408451C94.9406 0.13822 97.8459 3.1502e-05 100.783 3.1502e-05C151.405 3.1502e-05 192.442 41.0372 192.442 91.659C192.442 142.281 151.405 183.318 100.783 183.318C97.8459 183.318 94.9406 183.18 92.0737 182.91V183.317C91.9356 183.318 91.7973 183.318 91.659 183.318C41.0371 183.318 0 142.281 0 91.659C0 41.0371 41.0371 0 91.659 0ZM87.8244 182.409C43.3393 176.114 9.12442 137.882 9.12442 91.659C9.12442 45.4359 43.3397 7.20413 87.825 0.908946C39.4395 2.91812 0.829493 42.7796 0.829493 91.659C0.829493 140.538 39.4391 180.399 87.8244 182.409ZM191.613 91.659C191.613 141.823 150.947 182.489 100.783 182.489C50.6197 182.489 9.95392 141.823 9.95392 91.659C9.95392 41.4953 50.6197 0.829525 100.783 0.829525C150.947 0.829525 191.613 41.4953 191.613 91.659Z" fill="#9747FF"/>
</svg>
