<svg width="427" height="188" viewBox="0 0 427 188" fill="none" xmlns="http://www.w3.org/2000/svg">
<path fill-rule="evenodd" clip-rule="evenodd" d="M307.821 16.1352C308.455 14.9885 306.952 13.866 306.032 14.7988L181.428 141.168C181.26 141.338 181.151 141.557 181.116 141.794L174.78 184.382C174.658 185.207 175.442 185.875 176.236 185.622L221.832 171.131C222.107 171.043 222.337 170.854 222.477 170.602L307.821 16.1352ZM305.497 14.2713C307.03 12.7166 309.535 14.5875 308.479 16.4985L223.135 170.965C222.902 171.386 222.517 171.701 222.059 171.847L176.464 186.338C175.14 186.759 173.833 185.646 174.037 184.272L180.373 141.683C180.431 141.289 180.613 140.924 180.893 140.641L305.497 14.2713Z" fill="#006624" stroke="#00AC3C" stroke-linejoin="round"/>
<mask id="path-2-inside-1_244_75" fill="white">
<path fill-rule="evenodd" clip-rule="evenodd" d="M426.959 186.334C426.973 186.585 426.987 186.835 427 187.086H426.248H0.752409H0C0.0132952 186.835 0.0270992 186.585 0.0414109 186.334C5.97756 82.5058 99.2762 0 213.5 0C244.461 0 273.885 6.06191 300.449 16.9673L300.396 17.0068C300.195 17.1575 300.04 17.3515 299.938 17.5685C273.526 6.75921 244.278 0.751348 213.5 0.751348C99.6379 0.751348 6.72796 82.9737 0.793992 186.334H426.206C422.034 113.662 374.866 51.4389 307.649 20.8967C307.823 20.7102 307.947 20.4826 308.009 20.2364C375.443 50.8975 422.786 113.348 426.959 186.334Z"/>
</mask>
<path fill-rule="evenodd" clip-rule="evenodd" d="M426.959 186.334C426.973 186.585 426.987 186.835 427 187.086H426.248H0.752409H0C0.0132952 186.835 0.0270992 186.585 0.0414109 186.334C5.97756 82.5058 99.2762 0 213.5 0C244.461 0 273.885 6.06191 300.449 16.9673L300.396 17.0068C300.195 17.1575 300.04 17.3515 299.938 17.5685C273.526 6.75921 244.278 0.751348 213.5 0.751348C99.6379 0.751348 6.72796 82.9737 0.793992 186.334H426.206C422.034 113.662 374.866 51.4389 307.649 20.8967C307.823 20.7102 307.947 20.4826 308.009 20.2364C375.443 50.8975 422.786 113.348 426.959 186.334Z" fill="#9747FF"/>
<path d="M427 187.086V188.086H428.054L427.999 187.033L427 187.086ZM426.959 186.334L427.957 186.277L427.957 186.277L426.959 186.334ZM0 187.086L-0.998595 187.033L-1.05447 188.086H0V187.086ZM0.0414109 186.334L-0.956959 186.277L-0.956959 186.277L0.0414109 186.334ZM300.449 16.9673L301.049 17.7673L302.457 16.7108L300.828 16.0422L300.449 16.9673ZM300.396 17.0068L300.996 17.8068L300.996 17.8068L300.396 17.0068ZM299.938 17.5685L299.559 18.494L300.438 18.8536L300.843 17.9945L299.938 17.5685ZM0.793992 186.334L-0.204365 186.277L-0.265065 187.334H0.793992V186.334ZM426.206 186.334V187.334H427.265L427.204 186.277L426.206 186.334ZM307.649 20.8967L306.918 20.2141L305.968 21.2313L307.236 21.8071L307.649 20.8967ZM308.009 20.2364L308.423 19.3261L307.331 18.8297L307.039 19.9929L308.009 20.2364ZM427.999 187.033C427.985 186.781 427.971 186.529 427.957 186.277L425.96 186.391C425.974 186.64 425.988 186.889 426.001 187.139L427.999 187.033ZM426.248 188.086H427V186.086H426.248V188.086ZM0.752409 188.086H426.248V186.086H0.752409V188.086ZM0 188.086H0.752409V186.086H0V188.086ZM-0.956959 186.277C-0.971348 186.529 -0.985228 186.781 -0.998595 187.033L0.998595 187.139C1.01182 186.889 1.02555 186.64 1.03978 186.391L-0.956959 186.277ZM213.5 -1C98.8157 -1 5.01327 81.8527 -0.956959 186.277L1.03978 186.391C6.94185 83.1589 99.7367 1 213.5 1V-1ZM300.828 16.0422C274.145 5.08767 244.592 -1 213.5 -1V1C244.33 1 273.625 7.03616 300.069 17.8923L300.828 16.0422ZM299.848 16.1673L299.796 16.2068L300.996 17.8068L301.049 17.7673L299.848 16.1673ZM299.796 16.2068C299.461 16.4576 299.203 16.7811 299.033 17.1424L300.843 17.9945C300.877 17.922 300.928 17.8575 300.996 17.8068L299.796 16.2068ZM300.317 16.643C273.785 5.78482 244.409 -0.248652 213.5 -0.248652V1.75135C244.148 1.75135 273.266 7.73361 299.559 18.494L300.317 16.643ZM213.5 -0.248652C99.1773 -0.248652 5.76381 82.3205 -0.204365 186.277L1.79235 186.392C7.69211 83.6268 100.098 1.75135 213.5 1.75135V-0.248652ZM0.793992 187.334H426.206V185.334H0.793992V187.334ZM427.204 186.277C423.008 113.19 375.576 50.6634 308.063 19.9863L307.236 21.8071C374.155 52.2144 421.059 114.133 425.208 186.392L427.204 186.277ZM308.38 21.5793C308.67 21.2687 308.876 20.8898 308.979 20.4799L307.039 19.9929C307.018 20.0754 306.977 20.1518 306.918 20.2141L308.38 21.5793ZM427.957 186.277C423.76 112.877 376.154 50.1222 308.423 19.3261L307.595 21.1467C374.732 51.6728 421.811 113.819 425.96 186.391L427.957 186.277Z" fill="#9747FF" mask="url(#path-2-inside-1_244_75)"/>
<path fill-rule="evenodd" clip-rule="evenodd" d="M98.4917 88.2246L71.8709 51.843L72.4773 51.3993L99.098 87.7809L98.4917 88.2246Z" fill="#9747FF"/>
<path fill-rule="evenodd" clip-rule="evenodd" d="M173.538 49.3808L164.287 5.25941L165.022 5.10522L174.273 49.2267L173.538 49.3808Z" fill="#9747FF"/>
<path fill-rule="evenodd" clip-rule="evenodd" d="M250.401 51.8382L261.962 8.26473L262.688 8.4574L251.128 52.0309L250.401 51.8382Z" fill="#9747FF"/>
<path fill-rule="evenodd" clip-rule="evenodd" d="M330.529 88.118L355.129 50.3403L355.759 50.7502L331.159 88.5279L330.529 88.118Z" fill="#9747FF"/>
<path fill-rule="evenodd" clip-rule="evenodd" d="M375.58 152.006L414.485 129.232L414.865 129.88L375.96 152.654L375.58 152.006Z" fill="#9747FF"/>
<path fill-rule="evenodd" clip-rule="evenodd" d="M51.3256 156.674L12.5143 133.74L12.8965 133.093L51.7078 156.027L51.3256 156.674Z" fill="#9747FF"/>
</svg>
