<svg width="193" height="184" viewBox="0 0 193 184" fill="none" xmlns="http://www.w3.org/2000/svg">
<path fill-rule="evenodd" clip-rule="evenodd" d="M91.659 0C91.7973 0 91.9356 0.00030639 92.0737 0.000918528V0.408419C94.9406 0.138188 97.8459 0 100.783 0C151.405 0 192.442 41.0371 192.442 91.659C192.442 142.281 151.405 183.318 100.783 183.318C97.8459 183.318 94.9406 183.18 92.0737 182.91V183.317C91.9356 183.318 91.7973 183.318 91.659 183.318C41.0371 183.318 0 142.281 0 91.659C0 41.0371 41.0371 0 91.659 0ZM87.8247 182.409C43.3395 176.114 9.12442 137.882 9.12442 91.659C9.12442 45.4359 43.3395 7.20427 87.8247 0.90896C39.4393 2.9183 0.829493 42.7797 0.829493 91.659C0.829493 140.538 39.4393 180.4 87.8247 182.409ZM191.613 91.659C191.613 141.823 150.947 182.488 100.783 182.488C50.6197 182.488 9.95392 141.823 9.95392 91.659C9.95392 41.4952 50.6197 0.829493 100.783 0.829493C150.947 0.829493 191.613 41.4952 191.613 91.659Z" fill="#EB9081"/>
<path d="M80.9017 109.763L99.171 128.027C99.6555 128.511 100.312 128.783 100.997 128.783C101.682 128.783 102.339 128.511 102.824 128.027L121.093 109.763C121.578 109.278 122.235 109.006 122.92 109.006C123.605 109.006 124.262 109.278 124.746 109.763L132.785 117.797C133.27 118.281 133.542 118.938 133.542 119.623C133.542 120.308 133.27 120.965 132.785 121.45L102.824 151.411C102.339 151.896 101.682 152.168 100.997 152.168C100.312 152.168 99.6555 151.896 99.171 151.411L69.2147 121.45C68.7304 120.965 68.4583 120.308 68.4583 119.623C68.4583 118.938 68.7304 118.281 69.2147 117.797L77.254 109.763C77.7385 109.278 78.3954 109.006 79.0804 109.006C79.7654 109.006 80.4224 109.278 80.9069 109.763H80.9017ZM143.387 90.4652L143.744 90.7649L151.783 98.799C152.211 99.2265 152.476 99.7905 152.53 100.393C152.585 100.995 152.427 101.598 152.083 102.095L151.783 102.457L143.744 110.491C143.316 110.919 142.752 111.184 142.15 111.238C141.548 111.293 140.945 111.135 140.448 110.791L140.091 110.491L132.052 102.452C131.626 102.024 131.363 101.461 131.309 100.86C131.256 100.258 131.414 99.6573 131.757 99.1607L132.052 98.799L140.091 90.7649C140.464 90.3919 140.942 90.142 141.461 90.0487C141.98 89.9554 142.515 90.0232 142.995 90.243L143.387 90.4652ZM61.909 90.7649L69.9484 98.799C70.4327 99.2835 70.7047 99.9404 70.7047 100.625C70.7047 101.31 70.4327 101.967 69.9484 102.452L61.909 110.496C61.4246 110.981 60.7676 111.253 60.0826 111.253C59.3976 111.253 58.7406 110.981 58.2562 110.496L50.2117 102.452C49.7274 101.967 49.4553 101.31 49.4553 100.625C49.4553 99.9404 49.7274 99.2835 50.2117 98.799L58.251 90.7649C58.7355 90.2806 59.3924 90.0085 60.0774 90.0085C60.7624 90.0085 61.4246 90.2806 61.909 90.7649ZM102.467 90.4652L102.829 90.7649L110.863 98.799C111.291 99.2265 111.556 99.7905 111.61 100.393C111.665 100.995 111.507 101.598 111.163 102.095L110.863 102.457L102.829 110.491C102.402 110.919 101.838 111.184 101.235 111.238C100.633 111.293 100.03 111.135 99.5327 110.791L99.171 110.491L91.1369 102.452C90.7102 102.025 90.4466 101.462 90.3919 100.86C90.3372 100.259 90.4947 99.6579 90.8372 99.1607L91.1369 98.799L99.171 90.7649C99.5439 90.3919 100.022 90.142 100.541 90.0487C101.06 89.9554 101.595 90.0232 102.075 90.243L102.467 90.4652ZM102.829 49.8449L132.785 79.8012C133.27 80.2856 133.542 80.9426 133.542 81.6276C133.542 82.3126 133.27 82.9696 132.785 83.454L124.746 91.4934C124.262 91.9777 123.605 92.2497 122.92 92.2497C122.235 92.2497 121.578 91.9777 121.093 91.4934L102.829 73.2292C102.589 72.9886 102.304 72.7978 101.99 72.6675C101.676 72.5373 101.34 72.4702 101 72.4702C100.66 72.4702 100.324 72.5373 100.01 72.6675C99.6961 72.7978 99.411 72.9886 99.171 73.2292L80.9069 91.4934C80.4224 91.9777 79.7654 92.2497 79.0804 92.2497C78.3954 92.2497 77.7385 91.9777 77.254 91.4934L69.2147 83.454C68.7304 82.9696 68.4583 82.3126 68.4583 81.6276C68.4583 80.9426 68.7304 80.2856 69.2147 79.8012L99.171 49.8449C99.6555 49.3606 100.312 49.0885 100.997 49.0885C101.682 49.0885 102.345 49.3606 102.829 49.8449Z" fill="#EB9081"/>
</svg>
